PathFileType  4	(X/Y/Z) C:\Users\antoi\Documents\MyRepositories\mobilecap\ResultsAnalysis
DataRate	CameraRate	NumFrames	NumMarkers	Units	OrigDataRate	OrigDataStartFrame	OrigNumFrames
100.0	100.0	4	51	mm	100.0	19	145
Frame#	Time	r_knee			r_shank_antsup			r_ankle			r_calc			r_5meta			r_toe			L_knee			L_shank_antsup			L_ankle			L_calc			L_5meta			L_toe			r_sh2			r_sh3			r_sh4			L_sh2			L_sh3			r_thigh1			r_thigh2			r_thigh3			r_thigh4			r_thigh5			L_thigh1			L_thigh2			L_thigh3			L_thigh4			r.ASIS			r.PSIS			L.ASIS			L.PSIS			C7			R_Shoulder			L_Shoulder			R_Sternum			L_Sternum			R_humerus			R_elbow_med			R_elbow_lat			R_forearm			R_wrist_radius			R_wrist_ulna			L_humerus			L_elbow_med			L_elbow_lat			L_forearm			L_wrist_radius			L_wrist_ulna			R_HJC			L_HJC			R_HJC_reg			L_HJC_reg			
		X1	Y1	Z1	X2	Y2	Z2	X3	Y3	Z3	X4	Y4	Z4	X5	Y5	Z5	X6	Y6	Z6	X7	Y7	Z7	X8	Y8	Z8	X9	Y9	Z9	X10	Y10	Z10	X11	Y11	Z11	X12	Y12	Z12	X13	Y13	Z13	X14	Y14	Z14	X15	Y15	Z15	X16	Y16	Z16	X17	Y17	Z17	X18	Y18	Z18	X19	Y19	Z19	X20	Y20	Z20	X21	Y21	Z21	X22	Y22	Z22	X23	Y23	Z23	X24	Y24	Z24	X25	Y25	Z25	X26	Y26	Z26	X27	Y27	Z27	X28	Y28	Z28	X29	Y29	Z29	X30	Y30	Z30	X31	Y31	Z31	X32	Y32	Z32	X33	Y33	Z33	X34	Y34	Z34	X35	Y35	Z35	X36	Y36	Z36	X37	Y37	Z37	X38	Y38	Z38	X39	Y39	Z39	X40	Y40	Z40	X41	Y41	Z41	X42	Y42	Z42	X43	Y43	Z43	X44	Y44	Z44	X45	Y45	Z45	X46	Y46	Z46	X47	Y47	Z47	X48	Y48	Z48	X49	Y49	Z49	X50	Y50	Z50	X51	Y51	Z51	

19	0.18000000	215.43836	491.82120	-52.49273	258.20519	426.36743	-78.81161	193.64024	91.22806	-105.43233	123.24772	69.33017	-142.69314	297.14921	40.72652	-76.88815	345.07618	68.79053	-133.84309	106.10595	472.88095	-338.50320	66.94932	386.80476	-342.37353	-208.58796	251.84964	-282.46656	-258.10590	292.99957	-221.31736	-231.44630	124.86763	-315.09040	-169.61102	101.08241	-281.02536	240.50298	311.14065	-63.46639	180.79970	433.11726	-38.44820	166.17574	321.47143	-47.37778	22.88287	463.44614	-328.07646	-76.38900	392.74807	-322.11705	219.25670	816.10337	-5.69132	239.18201	704.24550	-20.44440	188.73972	671.53866	13.64032	113.58897	794.14814	24.40916	130.27203	679.99535	8.00999	15.48193	717.97150	-292.06775	43.14946	582.14386	-293.43768	105.34777	735.58217	-365.65993	132.85004	600.92384	-357.02421	206.75310	967.54069	-58.60750	1.78931	1001.01878	-99.40794	165.86171	929.02149	-304.06018	-22.22153	992.95497	-197.56504	-15.84940	1396.97450	-169.24260	113.66778	1367.24819	-7.84104	45.20339	1369.16360	-360.80192	129.79887	1373.81481	-170.14404	125.59627	1375.29746	-212.45958	119.28272	1230.26054	52.02551	31.17729	1029.80969	16.72775	47.87529	1046.42667	84.82518	97.62071	918.62437	117.25168	102.63485	782.32290	139.10558	76.28882	784.69548	159.69462	81.01727	1258.55276	-422.20484	100.07291	1019.15440	-370.66151	116.40872	1047.37199	-442.81477	221.19798	993.38623	-426.06554	330.05079	880.17897	-412.18813	317.35492	867.67490	-440.50012	126.84979	887.12511	-56.14617	87.34000	861.98994	-257.24392	135.39594	883.49466	-70.20427	96.03448	870.27462	-231.12124	
20	0.19000000	219.57052	491.72737	-52.06851	261.58229	425.86439	-78.42077	193.66683	91.40231	-105.46187	123.32029	69.46764	-142.69962	297.16447	40.61394	-76.87858	345.11158	68.65704	-133.77140	127.57679	476.06992	-339.63873	90.11924	389.77105	-343.54374	-185.58332	255.71482	-283.32549	-235.98371	295.83198	-222.10737	-206.79738	129.08967	-317.30317	-145.05756	105.50156	-282.80095	242.80628	310.80666	-63.26808	184.23626	433.32259	-38.12206	168.51701	321.82433	-47.15643	46.09465	466.49472	-329.49389	-53.25729	395.93727	-323.54264	227.28170	815.98685	-4.63632	246.39119	704.09992	-19.84032	195.25561	671.84190	14.07619	121.58273	795.42682	24.93970	137.04894	681.12068	8.32115	30.43292	717.76049	-291.30546	61.88992	582.94036	-293.17065	119.20097	738.03009	-365.66163	150.33565	604.13163	-358.07464	216.71077	968.65022	-57.45122	11.76188	1002.28365	-98.90276	177.07383	930.57970	-303.43400	-11.87555	994.23664	-197.18860	-5.30197	1398.57311	-168.14699	125.33549	1368.28669	-7.54570	54.46615	1370.39250	-360.15841	140.20363	1375.14551	-169.83938	135.88123	1376.66535	-212.19423	133.09978	1231.27975	52.10884	46.00633	1029.87823	18.96022	64.99178	1046.22761	86.09665	117.12566	919.34515	117.25491	125.17070	782.97383	137.81356	99.69111	784.83797	159.16187	88.74287	1258.95661	-421.40990	104.30162	1019.35913	-368.88728	120.57224	1047.13541	-441.10187	223.87479	989.95732	-425.22251	329.01739	873.14525	-412.39620	315.78248	861.13542	-440.64073	136.83158	888.22210	-55.50403	98.13286	863.48562	-256.80771	145.44362	884.79501	-69.41095	106.66863	871.59456	-230.64504	
21	0.20000000	223.43154	491.68093	-51.77176	264.64067	425.36846	-77.99436	193.65997	91.59683	-105.51380	123.36652	69.58550	-142.74518	297.17627	40.52148	-76.86818	345.13986	68.53622	-133.71104	148.88543	479.57369	-340.59158	113.33758	392.83444	-344.57214	-161.97405	258.33276	-284.23146	-213.38815	297.34389	-222.91811	-181.25087	131.96063	-319.39454	-119.60362	108.78428	-284.49176	244.72350	310.48917	-62.99250	187.28091	433.56116	-37.99468	170.49022	322.21593	-47.15392	68.93850	469.44374	-330.86536	-30.13322	398.51554	-324.95935	235.23809	815.87535	-3.90610	253.41668	703.91967	-19.49412	201.68217	672.17513	14.32399	129.46051	796.66040	25.39149	143.73920	682.23143	8.51535	45.31090	717.86758	-290.78395	80.53280	584.04520	-293.05924	133.11022	740.65663	-365.67015	167.81962	607.62437	-358.92510	226.53312	969.78348	-56.28960	21.64459	1003.58207	-98.47444	188.39440	932.42423	-302.82618	-1.60063	995.71285	-196.89842	5.10230	1400.28002	-167.17254	136.61144	1369.40218	-7.24922	63.75474	1371.66999	-359.56807	150.48063	1376.53705	-169.55955	146.05445	1378.09193	-211.99021	146.65208	1232.39862	52.14274	60.93836	1029.91431	21.16254	82.16765	1046.10219	87.32216	136.81385	920.19821	117.01744	148.41082	784.03856	136.17940	123.29150	785.22095	158.47464	96.37900	1259.40888	-420.62802	108.39169	1019.70252	-366.88689	124.46114	1046.95044	-439.22924	226.08936	986.56674	-424.42336	327.24467	866.14032	-412.82120	313.38157	854.61273	-440.92886	146.69257	889.33304	-54.97884	108.96039	865.22314	-256.53920	155.46252	886.06918	-68.75855	117.31023	873.15398	-230.30515	
22	0.21000000	227.03691	491.68048	-51.58796	267.43307	424.89531	-77.57306	193.64122	91.80047	-105.58529	123.38314	69.63004	-142.81810	297.18633	40.45706	-76.84528	345.16429	68.42744	-133.65618	170.01233	483.30083	-341.43500	136.51875	395.94633	-345.46657	-137.85019	259.70993	-285.19426	-190.36328	297.53338	-223.75945	-154.92900	133.48765	-321.32733	-93.28971	110.96800	-286.11713	246.31435	310.18575	-62.59663	190.02422	433.82507	-37.99634	172.19888	322.64429	-47.29195	91.37356	472.23945	-332.21610	-7.08625	400.47250	-326.34318	243.15093	815.74293	-3.46076	260.19761	703.67232	-19.35818	207.98844	672.52021	14.38753	137.24628	797.85070	25.73633	150.28860	683.31576	8.57756	60.15059	718.23118	-290.58752	99.08171	585.38753	-293.20508	147.16415	743.42060	-365.71818	185.36573	611.33835	-359.59485	236.18286	970.89805	-55.11561	31.44036	1004.89952	-98.16173	199.72296	934.54246	-302.19151	8.61667	997.35232	-196.72879	15.37823	1402.06370	-166.31100	147.50284	1370.62940	-6.94374	73.08241	1373.01853	-359.00905	160.65308	1377.97553	-169.29272	156.14252	1379.56171	-211.83325	159.88319	1233.67151	52.15849	76.00424	1029.98382	23.25541	99.30801	1046.14769	88.48522	156.61560	921.27189	116.50423	172.07284	785.58536	134.29637	146.98781	785.92545	157.61874	103.96873	1259.96071	-419.84260	112.29718	1020.27501	-364.65763	128.11715	1046.87318	-437.19392	227.85297	983.25524	-423.66387	324.72024	859.20011	-413.44168	310.12236	848.17189	-441.34077	156.38723	890.42950	-54.57570	119.78173	867.17705	-256.44034	165.37714	887.32893	-68.22670	127.90335	874.93806	-230.06401	
